<svg version="1.1" id="Layer_1" xmlns="http://www.w3.org/2000/svg" xmlns:xlink="http://www.w3.org/1999/xlink" x="0px" y="0px"
	 viewBox="0 0 577 675" xml:space="preserve">
<path fill="#d24838" d="M468.5,118c-4-11.1-14.7-31.2-22.3-42c-7.6-10.6-23-27.2-33-35.3C375.8,10.3,326.6-4.3,279,1.1
	c-21.8,2.5-40.5,7.9-59.5,17.4c-33.4,16.6-59.8,43.3-78.8,79.5c-9.9,18.7-16.9,38.4-18.7,52.9c-4.3,33-2.9,52.4,5.8,78.5
	c7.9,24,23.6,50.7,47.4,80.6c37.9,47.7,67.5,103.9,90.1,171c2.5,7.4,5.1,14.8,5.6,16.5c1.6,4.6,8.7,32.7,11.5,45.5
	c3.3,14.9,7.1,37.3,9.2,53c1.6,13.2,2.9,16,6.9,16c5,0,6.3-2.6,8-16c1.9-15.5,5.8-37.8,9.1-53c2.8-12.8,9.9-40.9,11.5-45.5
	c0.5-1.7,3.1-9.1,5.5-16.5c19.8-58.8,52.1-121.1,85-163.7c23.5-30.5,32.2-43.5,41.8-62.3C481.9,210.8,485,164.4,468.5,118z
	 M299.58,242.04c-34.63,0-62.7-28.65-62.7-63.99c0-35.34,28.07-63.99,62.7-63.99c34.63,0,62.7,28.65,62.7,63.99
	C362.28,213.39,334.21,242.04,299.58,242.04z"/>
</svg>
